<?xml version="1.0" encoding="utf-8"?>
<!-- Generator: Adobe Illustrator 25.3.0, SVG Export Plug-In . SVG Version: 6.00 Build 0)  -->
<svg version="1.1" id="레이어_1" xmlns="http://www.w3.org/2000/svg" xmlns:xlink="http://www.w3.org/1999/xlink" x="0px"
	 y="0px" viewBox="0 0 411.2 46" style="enable-background:new 0 0 411.2 46;" xml:space="preserve">
<style type="text/css">
	.st0{fill:#FBFBF9;}
	.st1{fill:#00A651;}
</style>
<rect y="23" class="st0" width="23" height="23"/>
<rect x="503" y="23" class="st0" width="23" height="23"/>
<rect x="182.6" y="23" class="st0" width="23" height="23"/>
<rect x="366" y="23" class="st0" width="23" height="23"/>
<rect x="23" class="st0" width="23" height="23"/>
<rect x="526" class="st0" width="23" height="23"/>
<rect x="205.6" class="st0" width="23" height="23"/>
<rect x="389" class="st0" width="22.2" height="23"/>
<rect x="91.3" y="23" class="st0" width="23" height="23"/>
<rect x="594.3" y="23" class="st0" width="23" height="23"/>
<rect x="274.7" y="23" class="st0" width="22.2" height="23"/>
<rect x="457.2" y="23" class="st0" width="23" height="23"/>
<rect x="114.3" class="st0" width="23" height="23"/>
<rect x="617.3" class="st0" width="23" height="23"/>
<rect x="296.9" class="st0" width="23" height="23"/>
<rect x="480.3" class="st0" width="23" height="23"/>
<rect x="46" y="23" class="st0" width="22.2" height="23"/>
<rect x="549" y="23" class="st0" width="22.2" height="23"/>
<rect x="228.6" y="23" class="st0" width="23" height="23"/>
<rect x="411.2" y="23" class="st0" width="23" height="23"/>
<rect x="68.3" class="st0" width="23" height="23"/>
<rect x="571.3" class="st0" width="23" height="23"/>
<rect x="251.6" class="st0" width="23" height="23"/>
<rect x="434.2" class="st0" width="23" height="23"/>
<rect x="137.3" y="23" class="st0" width="23" height="23"/>
<rect x="319.9" y="23" class="st0" width="23" height="23"/>
<rect x="160.4" class="st0" width="22.2" height="23"/>
<rect x="342.9" class="st0" width="23" height="23"/>
<rect x="23" y="23" class="st1" width="23" height="23"/>
<rect x="526" y="23" class="st1" width="23" height="23"/>
<rect x="205.6" y="23" class="st1" width="23" height="23"/>
<rect x="389" y="23" class="st1" width="22.2" height="23"/>
<rect x="46" class="st1" width="22.2" height="23"/>
<rect x="549" class="st1" width="22.2" height="23"/>
<rect x="228.6" class="st1" width="23" height="23"/>
<rect x="411.2" class="st1" width="23" height="23"/>
<rect class="st1" width="23" height="23"/>
<rect x="503" class="st1" width="23" height="23"/>
<rect x="182.6" class="st1" width="23" height="23"/>
<rect x="366" class="st1" width="23" height="23"/>
<rect x="114.3" y="23" class="st1" width="23" height="23"/>
<rect x="617.3" y="23" class="st1" width="23" height="23"/>
<rect x="296.9" y="23" class="st1" width="23" height="23"/>
<rect x="480.3" y="23" class="st1" width="23" height="23"/>
<rect x="137.3" class="st1" width="23" height="23"/>
<rect x="319.9" class="st1" width="23" height="23"/>
<rect x="68.3" y="23" class="st1" width="23" height="23"/>
<rect x="571.3" y="23" class="st1" width="23" height="23"/>
<rect x="251.6" y="23" class="st1" width="23" height="23"/>
<rect x="434.2" y="23" class="st1" width="23" height="23"/>
<rect x="91.3" class="st1" width="23" height="23"/>
<rect x="594.3" class="st1" width="23" height="23"/>
<rect x="274.7" class="st1" width="22.2" height="23"/>
<rect x="457.2" class="st1" width="23" height="23"/>
<rect x="160.4" y="23" class="st1" width="22.2" height="23"/>
<rect x="342.9" y="23" class="st1" width="23" height="23"/>
</svg>
