<svg width="1250" height="519" viewBox="0 0 1250 519" fill="none" xmlns="http://www.w3.org/2000/svg">
<path d="M457.72 519H436.649V359.168L505.728 195.959L584.259 145.164V21.0496H351.767V83.3401H330.695V0H605.331V156.622L522.615 210.104L457.72 363.442V519Z" fill="#FBFBF9"/>
<path d="M21.0712 519H0V0H184.56L280.837 85.9153V217.849L188.37 300.834L174.286 285.159L259.766 208.462V95.3391L176.527 21.0496H21.0712V519Z" fill="#FBFBF9"/>
<path d="M389.784 163.276L374.885 178.16L582.066 385.129L596.965 370.244L389.784 163.276Z" fill="#FBFBF9"/>
<path d="M780.045 519H758.974V359.168L828.053 195.959L906.585 145.164V21.0496H674.11V83.3401H653.039V0H927.656V156.622L844.94 210.104L780.045 363.442V519Z" fill="#FBFBF9"/>
<path d="M712.126 163.279L697.227 178.163L904.407 385.132L919.307 370.248L712.126 163.279Z" fill="#FBFBF9"/>
<path d="M1102.39 519H1081.32V359.168L1150.4 195.959L1228.93 145.164V21.0496H996.436V83.3401H975.365V0H1250V156.622L1167.28 210.104L1102.39 363.442V519Z" fill="#FBFBF9"/>
<path d="M1034.45 163.277L1019.55 178.161L1226.74 385.13L1241.63 370.245L1034.45 163.277Z" fill="#FBFBF9"/>
<path d="M276.653 519H255.582V382.047L51.4824 178.157L66.3705 163.284L276.653 373.332V519Z" fill="#FBFBF9"/>
</svg>
