<svg width="222" height="40" viewBox="0 0 222 40" fill="none" xmlns="http://www.w3.org/2000/svg">
<path d="M32.3677 22.516H30.2777C29.8597 24.34 28.5107 25.442 26.4777 25.442C24.0837 25.442 22.3357 23.485 22.3357 20.084C22.3357 16.626 24.1407 14.783 26.4587 14.783C28.4727 14.783 29.8027 15.923 30.2207 17.709H32.3107C31.7407 14.688 29.4987 12.978 26.5537 12.978C22.6017 12.978 20.1127 15.771 20.1127 20.084C20.1127 24.321 22.4307 27.247 26.4207 27.247C29.4797 27.247 31.7787 25.575 32.3677 22.516ZM36.6728 25.157V13.225H34.5068V27H43.7788V25.157H36.6728ZM47.4716 27V13.225H45.3056V27H47.4716ZM62.1665 22.516H60.0765C59.6585 24.34 58.3095 25.442 56.2765 25.442C53.8825 25.442 52.1345 23.485 52.1345 20.084C52.1345 16.626 53.9395 14.783 56.2575 14.783C58.2715 14.783 59.6015 15.923 60.0195 17.709H62.1095C61.5395 14.688 59.2975 12.978 56.3525 12.978C52.4005 12.978 49.9115 15.771 49.9115 20.084C49.9115 24.321 52.2295 27.247 56.2195 27.247C59.2785 27.247 61.5775 25.575 62.1665 22.516ZM66.4716 19.97V13.225H64.3056V27H66.4716V22.725L68.5616 20.426L73.1026 27H75.6676L70.0056 18.849L75.1356 13.225H72.5136L66.4716 19.97ZM84.4323 15.068V27H86.5983V15.068H91.0063V13.225H80.0053V15.068H84.4323ZM97.7498 27.247C101.74 27.247 104.248 24.302 104.248 20.103C104.248 15.904 101.74 12.978 97.7498 12.978C93.7408 12.978 91.2328 15.904 91.2328 20.103C91.2328 24.302 93.7408 27.247 97.7498 27.247ZM97.7498 25.442C95.3368 25.442 93.4558 23.561 93.4558 20.103C93.4558 16.645 95.3368 14.783 97.7498 14.783C100.144 14.783 102.025 16.645 102.025 20.103C102.025 23.561 100.144 25.442 97.7498 25.442ZM112.107 13.225H109.732L114.482 27H116.933L121.626 13.225H119.346L115.774 24.587L112.107 13.225ZM125.42 27V13.225H123.254V27H125.42ZM131.793 20.616L133.484 20.958C134.966 21.262 136.334 21.832 136.334 23.257C136.334 24.587 135.08 25.442 133.294 25.442C131.356 25.442 130.083 24.473 129.684 22.592H127.556C127.879 25.48 130.026 27.247 133.218 27.247C135.897 27.247 138.519 25.822 138.519 23.086C138.519 20.312 136.106 19.476 133.902 19.02L132.268 18.678C131.09 18.431 130.178 17.842 130.178 16.702C130.178 15.258 131.907 14.783 132.914 14.783C134.225 14.783 135.726 15.277 136.163 16.911H138.253C137.721 14.137 135.536 12.978 133.009 12.978C130.691 12.978 127.974 14.194 127.974 16.797C127.974 19.115 129.836 20.217 131.793 20.616ZM142.861 27V13.225H140.695V27H142.861ZM148.854 15.068V27H151.02V15.068H155.428V13.225H144.427V15.068H148.854ZM166.873 21.186L169.818 27H172.25L169.077 20.825C170.787 20.293 171.737 19.172 171.737 17.196C171.737 14.004 169.514 13.225 165.809 13.225H161.439V27H163.605V21.205H165.98C166.284 21.205 166.588 21.205 166.873 21.186ZM163.605 15.011H166.056C168.013 15.011 169.514 15.258 169.514 17.234C169.514 19.134 168.127 19.438 166.094 19.438H163.605V15.011ZM172.891 13.225V15.03H180.415C177.09 17.975 174.791 22.098 174.525 27H176.843C177.147 21.889 179.161 18.051 182.6 15.03V13.225H172.891ZM183.077 13.225V15.03H190.601C187.276 17.975 184.977 22.098 184.711 27H187.029C187.333 21.889 189.347 18.051 192.786 15.03V13.225H183.077ZM193.264 13.225V15.03H200.788C197.463 17.975 195.164 22.098 194.898 27H197.216C197.52 21.889 199.534 18.051 202.973 15.03V13.225H193.264Z" fill="white"/>
<rect x="0.75" y="0.75" width="220.5" height="38.5" stroke="white" stroke-width="1.5"/>
</svg>
